/* XPM */
static char * emf_logo_text_xpm[] = {
"75 75 2 1",
" 	c #000000",
".	c #FFFFFF",
"                                                                           ",
"                                                                           ",
"                                                                           ",
"                                                                           ",
"                                                                           ",
"                                                                           ",
"                                                                           ",
"                                                                           ",
"                                                                           ",
"                                                                           ",
"                                                                           ",
"     ................    .....               ....     ................     ",
"     ................    .....              .....     ................     ",
"     ................    ......             .....     ................     ",
"     ................    ......            ......     ................     ",
"     ....                .......          .......     ....                 ",
"     ....                .......          .......     ....                 ",
"     ....                ........        ........     ....                 ",
"     ....                ........        ........     ....                 ",
"     ....                .........      .........     ....                 ",
"     ....                .... .....     .... ....     ....                 ",
"     ....                .... .....    ..... ....     ....                 ",
"     ..............      ....  .....  .....  ....     ..............       ",
"     ..............      ....  .....  ....   ....     ..............       ",
"     ..............      ....   ..........   ....     ..............       ",
"     ..............      ....    ........    ....     ..............       ",
"     ....                ....    ........    ....     ....                 ",
"     ....                ....     ......     ....     ....                 ",
"     ....                ....     ......     ....     ....                 ",
"     ....                ....      ....      ....     ....                 ",
"     ....                ....                ....     ....                 ",
"     ....                ....                ....     ....                 ",
"     ....                ....                ....     ....                 ",
"     ....                ....                ....     ....                 ",
"     ................    ....                ....     ....                 ",
"     ................    ....                ....     ....                 ",
"     ................    ....                ....     ....                 ",
"     ................    ....                ....     ....                 ",
"                                                                           ",
"                                                                           ",
"                                                                           ",
"                                                                           ",
"                                                           .......         ",
"                                                          ..........       ",
"                                                         ....   .....      ",
"                           .....                        ....      ....     ",
"        ........          ........           ....       ...        ..      ",
"       ..........        ..........         .....      ...         .       ",
"     .....    ....      ....    ....      .......      ...                 ",
"      ...      ...     ....      ....    ........      ...  ......         ",
"       .        ...    ...        ...    .... ...      .............       ",
"               ....   ...         ....   .    ...      ..............      ",
"               ...    ...          ...        ...     .....       ...      ",
"             .....    ...          ...        ...     ....         ...     ",
"           ......     ...          ...        ...     ....         ...     ",
"          .....       ...          ...        ...     ...          ...     ",
"        .....         ...          ...        ...     ...           ...    ",
"       ....           ...          ...        ...      ..          ...     ",
"      ....            ....        ...         ...      ...         ...     ",
"      ...              ...        ...         ...      ...         ...     ",
"      ...              ....      ....         ...       ...       ....     ",
"     ..............     ..... ......     ...........    .....   .....      ",
"     ..............      ..........      ...........     ...........       ",
"     ..............       .......        ...........       .......         ",
"                                                                           ",
"                                                                           ",
"                                                                           ",
"                                                                           ",
"                                                                           ",
"                                                                           ",
"                                                                           ",
"                                                                           ",
"                                                                           ",
"                                                                           ",
"                                                                           "};
